<?xml version="1.0" standalone="no"?>
<!DOCTYPE svg PUBLIC "-//W3C//DTD SVG 20010904//EN"
 "http://www.w3.org/TR/2001/REC-SVG-20010904/DTD/svg10.dtd">
<svg version="1.0" xmlns="http://www.w3.org/2000/svg"
 width="260.000000pt" height="260.000000pt" viewBox="0 0 260.000000 260.000000"
 preserveAspectRatio="xMidYMid meet">
<metadata>
Created by potrace 1.11, written by Peter Selinger 2001-2013
</metadata>
<g transform="translate(0.000000,260.000000) scale(0.100000,-0.100000)"
fill="#000000" stroke="none">
<path d="M155 2581 c-55 -22 -102 -67 -130 -121 -22 -45 -22 -46 -24 -553 -1
-546 -2 -543 50 -588 10 -9 16 -18 13 -21 -2 -3 24 -20 60 -37 53 -27 74 -32
123 -30 95 4 171 52 213 135 27 54 26 18 32 740 2 252 0 315 -11 328 -8 9 -11
19 -8 22 3 4 1 12 -6 19 -30 32 -45 54 -40 59 4 3 0 6 -7 6 -7 0 -21 6 -29 14
-9 8 -23 16 -31 18 -8 2 -18 7 -22 12 -12 17 -140 15 -183 -3z"/>
<path d="M1185 2583 c-48 -25 -95 -75 -117 -123 -35 -81 -507 -1019 -548
-1090 -5 -8 -31 -60 -58 -115 -101 -204 -294 -580 -302 -590 -5 -5 -9 -12 -9
-15 -8 -35 -15 -50 -22 -50 -5 0 -9 -7 -9 -15 0 -8 -5 -15 -12 -15 -6 0 -8 -3
-5 -7 4 -3 -6 -29 -21 -57 -16 -28 -37 -73 -47 -101 -10 -27 -22 -54 -25 -60
-4 -5 -8 -38 -9 -73 -2 -62 22 -162 39 -162 5 0 12 -9 15 -20 3 -11 13 -20 21
-20 8 0 14 -4 14 -9 0 -5 16 -20 37 -32 52 -32 181 -33 235 -2 49 29 88 64 88
79 0 7 3 14 8 16 8 4 64 114 62 124 -1 4 2 10 7 13 4 3 23 38 42 76 19 39 39
73 44 76 5 3 8 8 7 10 -1 2 4 20 12 39 8 19 15 39 16 44 0 5 4 12 9 15 5 3 35
60 68 126 32 66 62 121 67 123 4 2 8 9 8 15 0 16 92 201 102 205 4 2 8 8 8 14
0 16 33 82 44 90 6 4 7 8 2 8 -5 0 -2 7 5 16 7 9 14 21 15 28 1 6 15 34 31 61
16 28 30 54 31 58 1 10 135 280 142 287 10 10 60 116 60 127 0 6 3 13 8 15 4
2 15 20 24 41 10 20 21 37 26 37 5 0 19 -24 33 -52 13 -29 34 -71 48 -93 13
-22 24 -42 24 -45 0 -3 132 -272 293 -597 162 -326 294 -597 294 -602 0 -5 7
-14 15 -21 8 -6 14 -15 13 -18 -3 -11 87 -185 123 -240 17 -27 50 -61 73 -76
37 -24 49 -26 146 -26 112 0 128 5 178 58 47 50 62 94 59 184 l-3 84 -433 870
c-239 478 -481 965 -538 1082 -109 223 -141 271 -204 303 -49 25 -189 26 -234
2z"/>
<path d="M816 503 c-1 -1 -17 -5 -36 -8 -104 -18 -187 -126 -184 -240 1 -69
21 -119 68 -169 34 -37 111 -80 126 -71 6 3 10 3 10 -2 0 -6 184 -8 345 -2 11
0 157 0 325 -1 294 -1 307 0 349 21 142 69 188 233 103 361 -31 47 -97 95
-143 104 -29 5 -957 12 -963 7z"/>
</g>
</svg>
